<svg xmlns="http://www.w3.org/2000/svg" viewBox="0 0 1736.000000 976.000000" role="img" aria-label="Hyper Vision eye logo">
<g transform="translate(0.000000,976.000000) scale(0.100000,-0.100000)"
fill="#3790e2" stroke="none">
<path d="M9917 9303 c-5 -5 -992 -17 -1135 -14 l-103 2 -37 -39 c-48 -51 -49
-51 -177 -42 -61 4 -167 4 -237 1 -128 -7 -128 -7 -157 -38 -37 -41 -68 -48
-138 -34 -30 6 -60 8 -65 5 -6 -4 -87 -7 -180 -8 l-169 -1 -25 -32 -25 -33
-132 0 c-163 0 -202 -10 -229 -56 -12 -20 -31 -36 -47 -40 -104 -23 -151 -38
-181 -58 -28 -20 -51 -25 -123 -28 -69 -4 -93 -9 -116 -26 -42 -31 -75 -36
-140 -22 -75 16 -173 -15 -197 -61 -18 -35 -43 -49 -89 -49 -29 0 -43 -7 -70
-37 -35 -38 -35 -38 -120 -39 l-85 -1 -40 -43 c-34 -36 -43 -42 -67 -36 -80
19 -118 18 -145 -4 -16 -12 -28 -28 -28 -35 0 -22 -41 -45 -82 -45 -30 0 -45
-8 -78 -41 l-41 -42 -75 7 c-85 8 -132 -3 -177 -40 -19 -16 -41 -24 -66 -24
-42 0 -68 -16 -73 -45 -4 -21 -33 -24 -91 -10 -18 5 -43 1 -76 -14 -28 -11
-63 -21 -79 -21 -21 0 -37 -10 -60 -39 -18 -22 -41 -42 -51 -46 -11 -3 -30
-21 -41 -40 -15 -24 -34 -38 -61 -46 -23 -7 -49 -25 -64 -45 -20 -26 -34 -33
-75 -39 -40 -5 -62 -16 -97 -47 -46 -40 -47 -40 -117 -36 l-71 3 -14 -33 c-11
-24 -25 -35 -52 -43 -20 -7 -47 -24 -58 -40 -14 -19 -37 -33 -67 -40 -32 -8
-49 -19 -59 -39 -20 -38 -39 -51 -98 -66 -28 -7 -72 -20 -97 -29 -25 -9 -57
-14 -73 -11 -39 8 -63 -7 -70 -43 -4 -21 -17 -35 -38 -47 -18 -9 -46 -31 -63
-49 -24 -25 -42 -33 -82 -39 -38 -5 -58 -14 -79 -36 -16 -16 -48 -37 -72 -46
-32 -12 -45 -24 -50 -43 -3 -14 -12 -39 -20 -55 -19 -37 -10 -71 26 -92 16
-10 32 -26 34 -36 6 -20 42 -25 53 -7 3 6 1 16 -5 22 -18 18 -13 30 12 23 12
-4 50 -9 85 -12 63 -6 63 -6 98 33 23 25 49 42 77 48 35 9 44 17 53 43 7 21
22 39 44 50 21 10 37 27 40 41 4 16 23 35 55 54 l49 29 47 -22 c54 -26 99 -22
99 9 0 21 19 31 58 31 48 0 71 12 90 45 18 29 25 33 83 39 87 10 90 10 121 2
23 -7 32 -3 61 29 29 32 43 38 86 43 44 4 55 9 73 36 29 40 46 53 83 60 16 4
47 18 68 32 22 14 57 32 80 40 22 8 56 26 76 41 19 15 56 32 81 39 38 9 45 15
45 35 0 36 11 46 66 60 28 7 55 21 60 31 14 25 34 22 53 -7 31 -47 64 -51 103
-13 33 32 37 33 133 36 l99 4 26 34 c20 26 41 38 95 54 52 16 79 30 102 55 23
26 39 35 64 35 47 0 83 16 93 42 15 39 47 59 108 67 32 5 64 6 72 3 7 -3 39 8
70 23 31 16 63 31 71 35 8 4 17 16 19 26 11 60 91 52 91 -8 0 -12 15 -18 61
-23 61 -7 62 -7 94 28 34 38 94 62 128 53 12 -3 52 -3 88 1 62 5 67 8 80 37
12 27 20 32 61 36 54 7 65 14 49 33 -16 21 10 40 43 31 19 -4 26 -13 26 -29 0
-19 7 -24 38 -29 86 -16 104 -13 122 18 22 41 52 47 220 45 80 0 151 0 158 0
7 1 21 16 32 34 37 62 151 75 420 48 l115 -12 35 40 c59 67 119 79 279 56 105
-14 168 -17 328 -12 109 2 425 7 703 10 536 5 552 4 620 -43 38 -26 104 -39
237 -46 120 -6 123 -7 136 -33 12 -25 16 -26 147 -38 74 -6 136 -12 137 -12 2
-1 11 -18 21 -38 l18 -38 64 3 c107 5 148 -4 166 -39 21 -41 70 -38 94 6 22
40 53 40 60 0 7 -38 55 -57 153 -60 91 -3 90 -3 84 -19 -9 -24 14 -35 59 -29
56 7 87 -1 126 -36 19 -16 51 -34 74 -40 22 -6 53 -25 69 -42 17 -17 50 -41
75 -53 30 -14 46 -29 50 -46 4 -17 15 -26 36 -31 43 -8 52 -16 69 -55 15 -38
15 -37 100 -38 58 -1 60 -2 63 -29 4 -31 36 -49 71 -40 25 6 71 -21 71 -42 0
-11 12 -15 43 -15 48 0 77 -22 77 -56 0 -38 23 -56 69 -56 29 1 48 -5 62 -19
10 -10 37 -26 59 -35 30 -12 42 -24 48 -47 4 -17 14 -33 22 -37 47 -22 55 -30
58 -56 3 -18 21 -45 50 -74 26 -26 58 -63 72 -83 30 -44 69 -63 98 -48 31 16
60 13 81 -8 11 -11 40 -28 65 -39 32 -15 47 -28 52 -46 3 -15 19 -36 35 -47
16 -11 37 -35 45 -52 9 -17 23 -37 30 -45 8 -7 14 -24 14 -38 0 -16 20 -44 60
-85 64 -65 116 -93 154 -83 28 7 66 -25 66 -55 0 -12 14 -26 38 -38 l37 -18
-3 -67 c-2 -59 0 -69 18 -80 11 -7 25 -29 30 -48 13 -46 192 -230 224 -230 9
0 31 -16 50 -35 20 -19 39 -35 44 -35 12 0 32 -46 32 -75 0 -18 11 -32 40 -50
l40 -25 -2 -64 c-1 -59 1 -67 30 -101 19 -21 32 -47 32 -63 0 -36 30 -83 74
-117 20 -15 36 -33 36 -41 0 -20 41 -44 75 -44 39 0 64 18 84 61 16 33 18 34
91 41 41 3 93 13 115 22 22 8 52 15 66 16 15 0 37 12 54 30 43 45 98 43 126
-4 15 -26 29 -36 57 -41 46 -8 82 -31 82 -51 0 -8 21 -25 48 -37 26 -13 61
-36 78 -54 20 -20 45 -33 72 -38 32 -5 46 -13 57 -35 18 -35 32 -40 106 -40
58 0 59 0 59 -29 0 -47 16 -53 116 -41 133 15 133 15 150 -25 8 -20 25 -40 39
-45 59 -22 126 -82 123 -109 -2 -20 -9 -27 -29 -29 -34 -4 -41 -29 -29 -94 13
-67 3 -84 -57 -91 -26 -3 -67 -9 -90 -13 -38 -6 -46 -3 -78 24 -46 41 -92 49
-175 28 -37 -9 -89 -16 -114 -16 -42 0 -46 -2 -52 -27 -3 -16 -10 -40 -16 -55
-6 -16 -10 -140 -10 -305 l-1 -278 -33 -32 c-30 -28 -34 -38 -34 -82 0 -47 -4
-55 -45 -97 -25 -25 -45 -49 -45 -53 0 -4 -15 -15 -34 -23 -26 -13 -35 -25
-40 -52 -4 -23 -17 -44 -35 -57 -19 -14 -31 -34 -35 -58 -9 -52 -20 -64 -57
-63 -36 1 -49 -11 -49 -45 0 -12 -10 -29 -21 -37 -12 -8 -30 -29 -41 -46 -13
-22 -25 -31 -37 -27 -31 8 -51 -10 -45 -42 8 -38 -33 -80 -51 -51 -16 25 -32
-3 -27 -48 4 -44 1 -52 -44 -111 -27 -36 -61 -71 -77 -80 -16 -9 -52 -33 -80
-54 -29 -21 -63 -37 -78 -37 -26 0 -139 -82 -139 -101 0 -5 -24 -36 -54 -68
-32 -35 -57 -72 -61 -92 -12 -54 -31 -69 -91 -69 -48 0 -56 -3 -76 -31 -13
-17 -35 -37 -50 -45 -15 -8 -37 -24 -48 -37 -16 -17 -36 -23 -83 -27 -58 -5
-63 -7 -78 -38 -17 -38 -35 -52 -66 -52 -35 0 -129 -98 -143 -149 -8 -30 -29
-60 -76 -106 l-64 -65 -59 0 c-51 0 -63 -4 -102 -35 -24 -19 -50 -35 -57 -35
-8 0 -33 -20 -58 -45 -35 -37 -50 -45 -79 -45 -22 0 -41 -7 -51 -19 -65 -76
-72 -81 -117 -81 -30 0 -47 -5 -50 -14 -3 -8 -25 -20 -47 -27 -26 -8 -51 -25
-67 -46 -20 -26 -36 -35 -85 -45 -49 -10 -62 -17 -74 -40 -8 -16 -32 -39 -54
-53 -22 -14 -40 -29 -40 -34 0 -14 -50 -31 -122 -41 -56 -8 -78 -17 -105 -40
-18 -17 -38 -30 -43 -30 -5 0 -16 -15 -24 -34 -8 -19 -25 -40 -38 -47 -12 -6
-40 -30 -60 -52 -31 -32 -42 -38 -63 -33 -20 5 -34 -1 -70 -35 -39 -36 -51
-41 -101 -44 -49 -3 -60 -8 -88 -38 -26 -28 -41 -35 -86 -40 -46 -6 -60 -12
-85 -41 -25 -29 -39 -36 -83 -41 -39 -5 -63 -16 -92 -40 -21 -18 -55 -36 -74
-39 -26 -5 -40 -15 -51 -35 -16 -33 -33 -41 -81 -41 -34 0 -45 -8 -83 -59 -15
-21 -29 -25 -97 -31 -86 -7 -160 -43 -232 -113 -38 -37 -115 -45 -149 -15 -47
41 -111 23 -173 -49 -44 -51 -66 -62 -123 -63 -41 0 -53 -5 -83 -35 -32 -32
-39 -35 -97 -35 -58 0 -64 -2 -92 -34 l-30 -34 -120 -6 c-135 -5 -152 -9 -160
-37 -11 -34 -50 -52 -98 -45 -53 8 -127 -7 -139 -28 -20 -36 -40 -46 -93 -46
-52 0 -102 -18 -190 -68 -23 -13 -64 -18 -178 -22 l-148 -5 -29 -35 -29 -35
-175 -5 -175 -5 -33 -37 -33 -38 -237 10 c-157 7 -252 7 -280 0 -24 -5 -97
-10 -163 -10 -169 0 -194 -19 -174 -127 11 -58 22 -67 100 -82 50 -10 59 -15
54 -30 -12 -38 236 -51 639 -34 157 6 159 7 188 35 22 22 38 28 71 28 29 0 54
8 79 25 35 23 45 25 163 25 112 0 130 2 152 20 14 11 44 25 67 31 22 6 50 22
62 36 25 32 82 26 111 -11 31 -39 52 -44 157 -37 74 4 101 10 106 21 4 8 11
24 16 34 6 11 33 27 61 36 28 9 58 24 68 33 31 32 127 15 173 -31 14 -14 39
-21 97 -25 l79 -7 36 34 c45 45 109 60 209 50 l75 -7 33 39 c32 39 32 39 110
40 43 1 84 2 90 3 7 0 25 15 40 31 31 35 104 60 175 60 46 0 50 2 63 34 18 42
39 50 135 51 75 0 75 0 89 32 11 24 25 35 55 45 30 10 42 19 44 36 4 29 32 28
66 -3 34 -32 50 -31 73 1 23 32 94 48 172 38 53 -7 54 -6 91 35 l38 41 78 0
c73 0 81 2 114 30 19 17 44 32 55 35 11 2 34 7 50 10 18 4 45 23 65 47 35 40
37 41 115 46 79 5 81 6 137 54 31 27 59 60 62 73 11 42 84 60 163 41 30 -8 36
-5 69 33 35 38 41 41 91 41 51 0 53 1 71 37 17 37 19 38 72 39 78 1 77 1 91
38 15 41 29 46 130 46 65 0 79 3 95 21 10 12 34 28 52 36 20 8 43 31 60 58 21
35 37 48 71 60 25 8 58 27 73 42 24 23 36 27 80 25 44 -2 55 2 88 30 20 18 45
40 56 49 10 9 28 28 39 43 19 26 25 28 94 28 68 1 77 3 105 30 17 16 46 38 64
48 21 13 35 30 39 50 6 32 36 60 63 60 9 0 26 11 37 24 17 20 35 25 90 31 37
3 74 7 82 8 8 1 22 15 31 32 13 23 27 32 66 41 70 16 165 73 193 116 13 20 38
42 55 48 92 35 136 59 178 102 41 42 53 48 88 48 47 0 139 70 161 123 9 21 23
31 57 40 31 8 51 20 61 38 10 18 28 29 55 35 33 7 45 16 61 47 l20 39 52 -6
52 -6 64 62 c80 79 107 118 107 156 0 43 25 65 64 57 72 -15 89 -12 105 20 9
17 17 32 19 35 1 2 30 5 62 6 63 1 57 -2 148 87 18 17 50 51 70 74 20 24 52
57 70 75 17 17 32 39 32 48 0 27 22 40 65 40 78 0 172 57 235 144 51 70 98
105 121 91 26 -17 216 131 248 192 18 37 29 43 73 43 46 0 74 34 65 80 -9 41
14 60 69 60 25 0 53 4 62 9 24 13 212 203 212 214 0 5 26 36 59 70 32 34 66
77 75 95 10 20 29 38 47 44 16 6 36 23 45 39 17 33 11 35 -40 14 -44 -19 -46
-15 -44 75 1 65 -24 192 -39 198 -50 17 -58 28 -58 80 0 48 -3 55 -37 87 -30
27 -38 41 -38 69 0 22 -9 45 -24 63 -13 15 -30 42 -39 59 -22 42 -109 104
-147 104 -25 0 -31 5 -38 32 -7 26 -15 34 -43 39 -24 6 -54 28 -106 81 -39 40
-80 81 -91 91 -11 10 -23 31 -27 45 -3 15 -20 41 -36 58 -29 30 -32 38 -27 99
3 29 2 30 -34 27 -40 -3 -40 -3 -42 53 -1 27 -4 30 -30 28 -38 -3 -56 12 -56
48 0 25 -4 29 -29 29 -33 0 -48 14 -53 50 -2 18 -10 26 -28 28 -37 6 -50 21
-50 58 0 27 -5 37 -25 46 -13 6 -28 20 -31 32 -19 61 -242 256 -292 256 -34 0
-62 27 -62 59 0 12 -8 24 -17 28 -31 11 -53 35 -53 58 0 13 -7 29 -17 36 -9 8
-21 27 -28 42 -15 37 -211 217 -235 217 -10 0 -22 -4 -25 -10 -13 -21 -45 -8
-104 41 -34 28 -64 62 -67 75 -4 14 -13 24 -24 24 -26 0 -50 27 -50 55 0 23
-17 35 -49 35 -9 0 -25 15 -36 33 -10 17 -26 37 -34 43 -8 7 -20 27 -26 45
-16 46 -44 59 -96 45 -39 -10 -42 -9 -67 21 -15 17 -37 36 -50 42 -12 7 -30
28 -40 48 -12 26 -26 39 -47 45 -17 4 -41 21 -53 38 -13 16 -29 30 -37 30 -8
0 -29 18 -46 40 -29 35 -37 40 -75 40 -47 0 -74 19 -74 52 0 29 -94 118 -125
118 -16 0 -31 10 -42 28 -24 37 -32 42 -78 42 -51 0 -62 8 -67 45 -2 25 -8 30
-33 33 -61 5 -76 13 -86 41 -11 30 -38 41 -104 41 -43 0 -135 85 -150 139 -9
31 -19 40 -69 64 -52 25 -96 30 -53 6 9 -6 17 -14 17 -19 0 -16 -30 -11 -58 8
-33 22 -75 39 -122 46 -24 4 -44 17 -63 41 -20 26 -42 39 -85 51 -72 20 -157
75 -177 114 -19 38 -50 50 -121 50 -46 0 -54 3 -54 19 0 30 -25 43 -82 41 -92
-3 -98 -1 -137 41 -36 40 -41 42 -111 47 -67 4 -74 7 -89 34 -9 16 -27 31 -41
34 -79 16 -85 19 -90 49 -5 30 -6 30 -70 30 l-65 0 0 35 c0 45 -28 52 -62 16
-32 -35 -78 -35 -116 2 -25 24 -36 27 -105 28 -42 1 -85 2 -94 3 -10 0 -34 15
-54 33 -35 31 -40 32 -123 33 -76 1 -92 4 -135 30 -49 29 -167 54 -253 55 -58
0 -90 14 -107 49 -21 39 -29 41 -213 45 -152 4 -162 5 -257 39 -94 35 -102 36
-195 30 -53 -3 -149 -2 -215 2 l-119 7 -41 38 c-36 32 -88 55 -99 43z"/>
<path d="M9385 7760 c-11 -4 -31 -20 -44 -34 -22 -23 -32 -26 -90 -26 -37 0
-82 -5 -101 -10 -24 -7 -51 -7 -87 1 -68 13 -90 6 -111 -39 -16 -36 -20 -37
-80 -43 -58 -6 -90 -24 -92 -51 0 -9 -65 -30 -87 -28 -45 5 -64 -1 -72 -22
-16 -42 -49 -62 -102 -64 -35 -1 -56 -7 -72 -22 -12 -11 -43 -30 -69 -41 -26
-11 -54 -32 -64 -46 -9 -14 -40 -38 -68 -52 -28 -14 -62 -34 -75 -44 -13 -11
-41 -24 -62 -29 -26 -7 -60 -32 -105 -76 -37 -37 -83 -71 -103 -78 -24 -9 -42
-24 -55 -47 -19 -35 -172 -129 -210 -129 -8 0 -23 -11 -32 -26 -9 -14 -31 -32
-48 -41 -17 -9 -46 -29 -64 -44 -18 -16 -53 -34 -77 -40 -25 -6 -55 -21 -67
-34 -30 -29 -61 -45 -89 -45 -13 0 -38 -17 -63 -44 -27 -28 -53 -46 -76 -51
-19 -4 -50 -20 -68 -36 -18 -16 -39 -29 -47 -29 -8 0 -33 -17 -56 -37 -40 -36
-40 -36 -125 -34 l-84 2 -38 -36 c-33 -33 -41 -36 -87 -34 -77 5 -121 -9 -164
-51 -22 -22 -52 -40 -73 -44 -44 -8 -73 -39 -87 -93 -7 -23 -16 -45 -21 -48
-17 -10 -11 -44 9 -55 11 -5 47 -10 80 -10 60 0 91 -15 91 -45 0 -16 51 -35
94 -35 61 0 78 -10 71 -40 -8 -36 4 -43 79 -45 46 -1 62 -6 70 -20 29 -48 44
-59 87 -61 24 -2 47 -3 52 -3 4 -1 7 -12 7 -26 0 -22 60 -102 110 -145 9 -8
27 -30 40 -49 13 -18 38 -39 56 -47 18 -8 36 -19 39 -25 18 -28 90 -69 123
-69 54 0 152 -102 152 -157 0 -30 7 -46 29 -67 18 -17 34 -47 41 -76 6 -27 23
-58 37 -71 22 -22 24 -29 18 -75 -6 -49 8 -84 34 -84 4 0 27 -18 51 -40 25
-22 52 -46 60 -54 8 -7 22 -20 30 -29 35 -38 99 -87 113 -87 30 0 46 -12 57
-44 8 -26 18 -34 48 -42 30 -7 39 -15 47 -42 6 -23 17 -34 35 -38 55 -12 60
-16 70 -55 7 -26 20 -44 38 -53 15 -8 40 -28 56 -45 27 -28 36 -31 87 -31 53
0 59 -2 75 -29 20 -33 52 -51 93 -51 16 0 44 -11 64 -24 33 -23 45 -25 154
-25 65 1 163 -6 218 -15 55 -9 130 -16 166 -16 71 0 85 -6 67 -27 -14 -17 -13
-18 46 -40 34 -12 55 -28 66 -48 l17 -30 109 0 109 0 37 40 37 40 163 5 c157
5 163 6 173 28 6 14 19 22 35 22 14 0 45 9 69 20 24 11 62 20 84 20 28 0 48 7
65 23 21 20 34 22 125 23 86 0 102 3 111 18 33 56 47 66 90 66 38 0 47 5 97
58 30 31 61 70 68 86 11 28 14 28 64 23 60 -7 75 -1 97 45 14 31 18 33 71 34
52 1 61 4 107 44 28 24 56 54 62 65 6 12 25 29 41 39 16 10 40 38 54 64 29 56
49 80 92 110 28 20 32 28 30 64 -2 39 1 44 42 71 24 17 49 44 57 63 8 19 19
34 24 34 30 0 50 41 50 105 0 62 1 65 30 80 28 14 30 20 30 70 0 73 13 105 44
105 21 0 25 6 31 43 4 23 20 65 36 93 17 30 31 73 35 107 6 54 6 57 -20 66
-33 13 -34 43 -3 64 13 8 29 34 36 57 7 23 27 56 46 74 32 30 33 35 38 122 5
98 1 110 -47 161 -17 17 -49 50 -71 73 l-40 41 3 119 c3 148 -14 222 -58 245
-23 12 -29 23 -35 64 -6 45 -10 50 -36 56 -19 4 -38 20 -54 43 -13 21 -37 49
-53 64 -57 53 -92 117 -86 157 5 33 1 43 -46 99 -57 67 -75 77 -120 67 -33 -7
-39 1 -14 19 9 7 13 18 8 30 -6 15 -14 17 -61 11 -58 -7 -93 9 -93 45 0 23
-20 40 -48 40 -13 0 -55 16 -94 37 -46 24 -81 36 -105 35 -41 -2 -70 12 -95
43 -10 12 -32 28 -50 35 -18 7 -47 26 -65 43 -46 43 -128 58 -283 51 l-125 -5
-39 30 -39 31 -281 -1 c-154 0 -290 -4 -301 -9z"/>
<path d="M2915 7111 c-11 -4 -31 -28 -46 -52 -25 -42 -27 -44 -75 -44 l-49 0
-6 -46 c-4 -26 -15 -58 -24 -73 -41 -62 55 -81 107 -21 19 21 50 41 80 51 39
13 52 23 68 55 17 32 26 39 51 39 39 0 48 24 20 54 -11 12 -21 28 -21 34 0 14
-73 15 -105 3z"/>
<path d="M4960 6971 c-139 -6 -153 -10 -183 -47 -9 -12 -31 -25 -47 -28 -17
-3 -43 -9 -60 -12 -16 -3 -51 -23 -77 -45 -27 -22 -58 -42 -70 -45 -21 -6
-115 -122 -130 -160 -4 -11 -40 -52 -81 -93 -83 -82 -103 -126 -95 -202 4 -39
1 -50 -23 -79 -34 -40 -42 -102 -43 -336 l-1 -151 30 -38 c25 -31 30 -47 30
-92 0 -96 27 -190 57 -197 17 -5 30 -19 40 -45 10 -25 26 -43 47 -54 19 -9 38
-28 45 -46 15 -35 39 -45 85 -37 23 4 47 0 77 -14 27 -12 66 -20 100 -20 48 0
62 -5 95 -31 22 -17 55 -39 74 -49 19 -10 51 -34 69 -54 19 -20 39 -36 45 -36
5 0 24 -11 42 -25 35 -27 59 -32 70 -14 4 7 27 8 66 4 76 -9 120 10 167 71
l34 45 -7 178 c-8 213 0 265 47 290 16 9 37 25 46 35 17 21 79 88 122 134 14
15 65 63 112 106 66 60 88 88 93 113 5 25 12 35 33 39 14 3 39 10 55 15 16 5
49 9 73 9 25 0 72 7 106 15 34 8 79 17 100 20 56 9 37 21 -45 30 -40 4 -98 11
-128 14 l-55 6 0 89 0 89 -33 11 c-36 13 -52 31 -52 61 0 48 -151 209 -210
225 -58 16 -70 30 -79 92 -8 62 -24 88 -52 88 -11 0 -56 36 -101 80 -113 113
-73 104 -388 91z"/>
<path d="M1643 5751 c-68 -12 -96 -49 -117 -156 -23 -124 -15 -145 70 -185 56
-27 64 -34 64 -59 0 -50 27 -46 86 13 53 53 54 55 54 111 0 55 2 60 40 95 27
25 40 45 40 63 0 14 5 29 10 32 38 23 -16 63 -108 81 -73 14 -78 15 -139 5z"/>
<path d="M14180 5485 c-14 -33 -29 -49 -57 -62 l-38 -18 -7 -95 c-21 -292 -20
-288 -55 -320 -34 -32 -41 -59 -46 -175 -2 -59 -3 -60 -40 -78 -47 -22 -59
-52 -55 -134 2 -55 0 -65 -23 -90 -15 -16 -29 -45 -32 -68 -4 -21 -15 -51 -25
-65 -11 -14 -22 -37 -26 -50 -17 -60 -30 -81 -62 -99 -32 -19 -34 -24 -34 -74
0 -41 -6 -63 -25 -91 -17 -26 -25 -50 -25 -81 0 -49 -20 -70 -77 -81 -20 -4
-54 -27 -94 -65 -50 -48 -66 -58 -85 -53 -31 8 -54 -11 -54 -44 0 -14 -8 -35
-19 -46 -10 -12 -34 -50 -52 -86 -59 -114 -222 -267 -349 -326 -36 -17 -260
-240 -260 -258 0 -9 -27 -43 -59 -76 -53 -53 -64 -60 -100 -60 -33 0 -43 -5
-62 -31 -12 -17 -43 -41 -68 -52 -25 -11 -63 -35 -84 -53 -25 -23 -47 -34 -67
-34 -24 0 -35 -7 -51 -34 -11 -19 -32 -39 -47 -45 -28 -12 -137 -190 -124
-202 7 -7 129 4 226 18 45 7 50 11 61 43 l12 35 67 0 c66 0 85 9 86 43 0 7 14
12 35 12 36 0 74 37 60 59 -12 20 12 43 70 66 53 22 60 23 86 9 48 -25 103 -6
177 60 20 19 53 37 72 41 19 4 46 17 60 29 14 12 42 35 63 50 22 16 43 41 49
57 10 30 17 33 83 30 47 -2 57 4 76 43 11 23 25 33 64 42 27 7 56 22 65 32 8
11 31 25 51 31 25 8 46 25 63 51 25 38 29 40 77 40 55 0 40 -12 201 157 l31
32 -19 82 c-11 49 -30 100 -46 123 -15 23 -28 54 -28 70 0 16 -12 44 -26 63
-15 19 -24 42 -21 51 3 9 12 35 21 57 9 24 12 56 9 81 -7 54 16 79 84 88 67 8
130 51 230 152 80 82 84 84 129 84 45 0 49 3 131 85 46 46 90 100 98 118 12
29 20 35 56 41 30 5 56 19 88 49 61 55 67 72 36 101 -21 19 -25 33 -25 77 0
125 -29 219 -67 219 -17 0 -43 59 -43 97 0 34 -8 46 -36 61 -12 7 -29 32 -37
57 -9 25 -39 80 -66 122 -54 82 -60 103 -36 123 21 17 19 73 -3 93 -29 26 -41
21 -62 -28z"/>
<path d="M5406 4705 c-4 -19 -18 -48 -32 -65 -34 -40 -29 -69 16 -84 34 -11
81 -76 126 -175 8 -18 28 -44 45 -58 27 -23 29 -30 29 -89 0 -56 3 -67 25 -86
20 -17 25 -31 25 -67 0 -76 25 -150 60 -180 l31 -26 4 -305 c2 -168 6 -364 10
-435 l6 -131 -41 -36 c-45 -41 -42 -27 -40 -233 l1 -130 -42 -36 c-42 -35 -43
-39 -43 -93 0 -53 2 -59 37 -91 39 -35 41 -43 37 -138 -2 -48 3 -66 29 -112
28 -49 31 -64 31 -137 0 -46 4 -87 8 -93 15 -21 98 -82 120 -89 12 -4 34 -25
48 -47 13 -21 30 -39 38 -39 16 0 46 -32 46 -49 0 -8 14 -29 30 -48 17 -18 30
-38 30 -43 0 -15 49 -23 64 -11 11 9 29 8 77 -5 74 -20 89 -29 89 -55 0 -18
14 -23 52 -20 35 4 58 -18 55 -52 -3 -49 39 -50 84 -3 41 44 72 46 107 6 24
-28 29 -29 82 -23 34 3 65 1 77 -5 11 -6 73 -12 137 -13 l116 -1 41 36 c22 20
54 39 70 43 22 4 34 14 41 34 10 29 17 33 50 30 27 -3 56 17 72 48 13 23 23
29 61 33 26 3 56 14 68 26 12 11 41 29 63 40 44 22 54 41 54 105 0 28 7 45 28
65 24 24 28 37 34 112 12 161 18 187 44 199 28 12 44 48 44 96 0 25 9 43 30
65 23 23 29 37 24 53 -25 85 -39 125 -52 145 -8 12 -17 63 -21 115 -8 99 -15
119 -55 156 -33 31 -33 51 -1 89 28 33 33 62 10 62 -28 0 -46 44 -43 106 3 59
3 59 -27 62 -42 5 -56 20 -53 56 3 28 0 31 -26 31 -30 0 -41 12 -51 58 -4 21
-11 27 -31 27 -42 0 -64 18 -64 51 0 29 -1 30 -34 24 -43 -8 -75 8 -87 45 -11
30 -33 40 -90 40 -38 0 -69 24 -69 53 0 25 -18 31 -105 37 -75 5 -81 7 -93 32
-9 19 -25 31 -52 38 -22 6 -49 23 -62 39 -24 30 -76 61 -103 61 -8 0 -20 11
-25 25 -6 15 -20 27 -37 30 -46 10 -77 29 -91 58 -7 15 -24 34 -37 43 -13 9
-33 31 -44 50 -19 32 -25 35 -62 32 -41 -2 -47 1 -75 48 -6 10 -25 19 -48 20
-49 4 -63 14 -162 110 -88 86 -99 109 -79 157 29 71 -117 236 -195 221 -23 -5
-31 -2 -40 17 -7 13 -25 34 -41 47 -16 13 -29 32 -29 42 0 36 -12 50 -41 50
-23 0 -34 8 -50 35 -20 33 -24 35 -74 35 -52 0 -53 0 -59 -35z"/>
<path d="M1310 4259 c-9 -16 -9 -31 0 -64 31 -112 -101 -163 -147 -57 l-17 37
-7 -30 c-15 -64 -10 -87 26 -126 32 -35 35 -45 35 -97 0 -53 3 -61 35 -92 31
-30 35 -39 35 -87 0 -54 0 -54 43 -73 47 -22 127 -26 160 -8 43 22 51 47 53
153 2 91 0 102 -21 125 -12 14 -27 38 -32 54 -6 21 -19 33 -44 41 -30 11 -35
16 -39 56 -3 24 -12 55 -19 68 -7 13 -16 44 -20 69 -7 51 -24 64 -41 31z"/>
<path d="M2148 4079 c-15 -6 -30 -19 -33 -30 -9 -28 -55 -48 -127 -56 -71 -7
-115 -35 -192 -121 -57 -65 -69 -122 -38 -185 11 -23 23 -52 27 -64 10 -37 53
-63 100 -63 39 0 47 -4 85 -50 33 -39 41 -56 36 -74 -9 -35 36 -86 75 -86 29
0 62 -25 84 -64 8 -13 28 -20 75 -25 36 -4 75 -13 87 -21 35 -22 57 3 49 57
-6 48 0 73 19 73 18 0 22 18 30 137 8 118 -1 193 -21 193 -8 0 -14 -6 -15 -12
-4 -45 -28 123 -29 195 l0 87 -47 23 c-26 12 -53 33 -60 47 -23 47 -52 58
-105 39z"/>
<path d="M1856 2478 c-9 -12 -16 -28 -16 -36 0 -7 -9 -31 -20 -52 -19 -38 -19
-42 -5 -71 10 -19 14 -41 10 -59 -11 -50 15 -45 139 27 12 7 40 13 62 13 46 0
54 10 54 63 0 102 -38 137 -149 137 -51 0 -62 -3 -75 -22z"/>
</g>

</svg>
